<svg id="visual" viewBox="0 0 450 900" width="450" height="900" xmlns="http://www.w3.org/2000/svg" xmlns:xlink="http://www.w3.org/1999/xlink" version="1.1"><rect x="0" y="0" width="450" height="900" fill="#ffffff"></rect><path d="M0 734L64 703L129 735L193 703L257 680L321 728L386 709L450 684L450 901L386 901L321 901L257 901L193 901L129 901L64 901L0 901Z" fill="#002856"></path><path d="M0 708L64 741L129 704L193 775L257 708L321 732L386 727L450 774L450 901L386 901L321 901L257 901L193 901L129 901L64 901L0 901Z" fill="#053670"></path><path d="M0 752L64 747L129 792L193 791L257 766L321 786L386 740L450 737L450 901L386 901L321 901L257 901L193 901L129 901L64 901L0 901Z" fill="#0f448b"></path><path d="M0 779L64 805L129 798L193 782L257 806L321 791L386 762L450 787L450 901L386 901L321 901L257 901L193 901L129 901L64 901L0 901Z" fill="#1c52a7"></path><path d="M0 817L64 836L129 818L193 806L257 825L321 827L386 829L450 815L450 901L386 901L321 901L257 901L193 901L129 901L64 901L0 901Z" fill="#2a60c4"></path><path d="M0 850L64 827L129 841L193 842L257 835L321 845L386 856L450 824L450 901L386 901L321 901L257 901L193 901L129 901L64 901L0 901Z" fill="#396fe1"></path><path d="M0 861L64 879L129 861L193 863L257 851L321 853L386 870L450 854L450 901L386 901L321 901L257 901L193 901L129 901L64 901L0 901Z" fill="#497eff"></path></svg>