<svg id="visual" viewBox="0 0 1366 657" width="1366" height="657" xmlns="http://www.w3.org/2000/svg" xmlns:xlink="http://www.w3.org/1999/xlink" version="1.1"><rect x="0" y="0" width="1366" height="657" fill="#FFFFFF"></rect><defs><linearGradient id="grad1_0" x1="51.9%" y1="0%" x2="100%" y2="100%"><stop offset="8.417047184170467%" stop-color="#ffffff" stop-opacity="1"></stop><stop offset="91.58295281582954%" stop-color="#ffffff" stop-opacity="1"></stop></linearGradient></defs><defs><linearGradient id="grad2_0" x1="0%" y1="0%" x2="48.1%" y2="100%"><stop offset="8.417047184170467%" stop-color="#ffffff" stop-opacity="1"></stop><stop offset="91.58295281582954%" stop-color="#ffffff" stop-opacity="1"></stop></linearGradient></defs><g transform="translate(1366, 0)"><path d="M0 295.7C-35.9 261 -71.8 226.4 -119 206.1C-166.2 185.8 -224.7 179.8 -256 147.8C-287.4 115.9 -291.5 57.9 -295.6 0L0 0Z" fill="#002856"></path></g><g transform="translate(0, 657)"><path d="M0 -295.6C34.8 -259.2 69.7 -222.7 117 -202.6C164.3 -182.6 224.2 -178.9 256 -147.8C287.9 -116.8 291.8 -58.4 295.7 0L0 0Z" fill="#002856"></path></g></svg>