<svg id="visual" viewBox="0 0 900 450" width="900" height="450" xmlns="http://www.w3.org/2000/svg" xmlns:xlink="http://www.w3.org/1999/xlink" version="1.1"><rect x="0" y="0" width="900" height="450" fill="#ffffff"></rect><path d="M0 347L10.7 348.8C21.3 350.7 42.7 354.3 64.2 367C85.7 379.7 107.3 401.3 128.8 404.5C150.3 407.7 171.7 392.3 193 386.7C214.3 381 235.7 385 257 388.7C278.3 392.3 299.7 395.7 321.2 396C342.7 396.3 364.3 393.7 385.8 385C407.3 376.3 428.7 361.7 450 365.8C471.3 370 492.7 393 514.2 391.2C535.7 389.3 557.3 362.7 578.8 356.7C600.3 350.7 621.7 365.3 643 378.2C664.3 391 685.7 402 707 395.8C728.3 389.7 749.7 366.3 771.2 360.2C792.7 354 814.3 365 835.8 372.2C857.3 379.3 878.7 382.7 889.3 384.3L900 386L900 451L889.3 451C878.7 451 857.3 451 835.8 451C814.3 451 792.7 451 771.2 451C749.7 451 728.3 451 707 451C685.7 451 664.3 451 643 451C621.7 451 600.3 451 578.8 451C557.3 451 535.7 451 514.2 451C492.7 451 471.3 451 450 451C428.7 451 407.3 451 385.8 451C364.3 451 342.7 451 321.2 451C299.7 451 278.3 451 257 451C235.7 451 214.3 451 193 451C171.7 451 150.3 451 128.8 451C107.3 451 85.7 451 64.2 451C42.7 451 21.3 451 10.7 451L0 451Z" fill="#002856" stroke-linecap="round" stroke-linejoin="miter"></path></svg>